# xmcd CD database file
#
# Track frame offsets:
#	150
#	22620
#	40770
#	63780
#	87945
#	115543
#	130665
#	165535
#	190523
#	215825
#	238328
#	266648
#	285763
#	311970
#
# Disc length: 4523 seconds
#
# Revision: 2
# Processed by: cddbd v1.5.1PL0 Copyright (c) Steve Scherf et al.
# Submitted via: CDex 1.51
#
DISCID=b311a90e
DTITLE=Various Artist - DANCE 2 NOISE 001
DYEAR=1991
DGENRE=Pop
TTITLE0=HOSHINO HIDEHIKO/Jarring Voice
TTITLE1=M-AGE/CALL ME
TTITLE2=SUB SONIC/Think Of Making Love
TTITLE3=TATSU/Domingo Express
TTITLE4=HAMLET MACHINE/讃美歌
TTITLE5=PC-8/Planet!!
TTITLE6=CRYPTEMEN/Flame Of Illusion
TTITLE7=Cool Acid Suckers/びっくり
TTITLE8=D.M.X&A.M./Little Bit Cool
TTITLE9=paint in watercolour/heaven
TTITLE10=PBC/MACRO-MUTOS
TTITLE11=MAZZ+P.M.X/VIOLATOR
TTITLE12=BRAIN DRIVE/VISION OF LOVE
TTITLE13=SCHAFT/nicht-titel
EXTD=YEAR: 1991
EXTT0=
EXTT1=
EXTT2=
EXTT3=
EXTT4=
EXTT5=
EXTT6=
EXTT7=
EXTT8=
EXTT9=
EXTT10=
EXTT11=
EXTT12=
EXTT13=
PLAYORDER=
